<svg width="312" height="28" viewBox="0 0 312 28" fill="none" xmlns="http://www.w3.org/2000/svg">
<path fill-rule="evenodd" clip-rule="evenodd" d="M135.529 23.2158C135.529 20.9004 137.449 18.9805 139.765 18.9805C142.08 18.9805 144 20.9004 144 23.2158C144 25.5311 142.08 27.4511 139.765 27.4511C137.449 27.4511 135.529 25.5311 135.529 23.2158Z" fill="#86BC25"/>
<path fill-rule="evenodd" clip-rule="evenodd" d="M93.6646 0.959482V7.19892H97.8533V12.3133H93.6646V20.0358C93.6646 21.3145 94.2197 21.9792 95.4308 21.9792C96.3392 21.9792 97.3991 21.7748 98.6102 21.3145V26.3264C97.7018 26.7357 96.8944 26.9913 96.0868 27.1959C95.2794 27.3493 94.3205 27.4516 93.2608 27.4516C91.0404 27.4516 89.4758 26.889 88.4665 25.7639C87.5076 24.6387 87.0031 22.8998 87.0031 20.5984V12.3133H84.6817V7.19892H87.0031V2.13571L93.6646 0.959482ZM108.905 1.01064V7.19892H113.094V12.3133H108.905V20.0358C108.905 21.3145 109.511 21.9792 110.671 21.9792C111.58 21.9792 112.64 21.7748 113.851 21.3145V26.3264C112.942 26.7357 112.135 26.9913 111.328 27.1959C110.52 27.3493 109.561 27.4516 108.501 27.4516C106.281 27.4516 104.716 26.889 103.707 25.7639C102.748 24.6387 102.244 22.8998 102.244 20.5984V12.3133H99.9223V7.19892H102.244V2.08455L108.905 1.01064ZM63.3851 6.89211C65.2523 6.89211 66.9176 7.30124 68.3812 8.1195C69.8447 8.93776 70.9044 10.114 71.7118 11.6995C72.4689 13.1827 72.8726 14.9727 72.8726 17.0695C72.8726 20.2916 72.0147 22.8487 70.3493 24.6387C68.6839 26.4287 66.312 27.3493 63.2841 27.3493C60.4075 27.3493 58.0862 26.4287 56.3702 24.5875C54.6544 22.7463 53.7965 20.2404 53.7965 17.0695C53.7965 13.8475 54.6544 11.3415 56.3198 9.55154C57.9852 7.76153 60.357 6.89211 63.3851 6.89211ZM124.802 6.84095C127.679 6.84095 129.899 7.65921 131.463 9.1934C132.93 10.6319 133.731 12.6995 133.826 15.3544L133.835 15.8933V19.013H122.077C122.127 20.1381 122.48 21.0075 123.237 21.6213C123.995 22.2351 125.004 22.5419 126.265 22.5419C127.426 22.5419 128.486 22.3884 129.445 22.1839C129.97 22.0611 130.527 21.8729 131.116 21.6453L131.564 21.4678L132.574 25.9172C131.564 26.4798 130.504 26.8378 129.394 27.0425C128.284 27.2469 126.972 27.3493 125.458 27.3493C122.279 27.3493 119.806 26.4798 118.04 24.741C116.273 22.951 115.415 20.4451 115.415 17.223C115.415 13.8475 116.223 11.2904 117.838 9.50038C119.453 7.71037 121.774 6.84095 124.802 6.84095ZM33.1056 6.84095C35.982 6.84095 38.2025 7.65921 39.767 9.1934C41.3316 10.7278 42.0885 12.9781 42.139 15.8933V19.013H30.3804C30.4309 20.1381 30.7842 21.0075 31.5411 21.6213C32.2982 22.2351 33.3074 22.5419 34.5691 22.5419C35.7298 22.5419 36.7896 22.3884 37.7485 22.1839C38.4045 22.0304 39.1109 21.7748 39.868 21.4678L40.8774 25.9172C39.868 26.4798 38.8082 26.8378 37.698 27.0425C36.5877 27.2469 35.2756 27.3493 33.7616 27.3493C30.5822 27.3493 28.1095 26.4798 26.3432 24.741C24.5769 22.951 23.719 20.4451 23.719 17.223C23.719 13.8475 24.5264 11.2904 26.1413 9.50038C27.7563 7.71037 30.0775 6.84095 33.1056 6.84095ZM51.2733 0.345703V27.0425H44.6622V0.345703H51.2733ZM82.1078 7.19892V27.0425H75.4968V7.19892H82.1078ZM8.88192 0.396865C12.9697 0.396865 16.149 1.47094 18.42 3.67007C20.59 5.92037 21.7003 9.04008 21.7003 13.1827C21.7003 17.6321 20.5397 21.0075 18.1677 23.4113C15.7958 25.8151 12.5155 26.9913 8.22596 26.9913H0V0.396865H8.88192ZM63.3851 11.9552C62.3757 11.9552 61.6693 12.3643 61.2151 13.2337C60.7104 14.1033 60.5085 15.3818 60.5085 17.0695C60.5085 18.7572 60.7104 20.0869 61.1646 20.9563C61.6188 21.8258 62.3252 22.2861 63.3851 22.2861C64.3944 22.2861 65.1514 21.8258 65.5551 20.9563C65.9588 20.0869 66.2112 18.7572 66.2112 17.0695C66.2112 15.3818 66.0093 14.1033 65.5551 13.2337C65.1514 12.3643 64.3944 11.9552 63.3851 11.9552ZM8.88192 6.27833H6.86338V21.161H8.42773C10.5474 21.161 12.0613 20.5472 13.0706 19.2687C14.0295 17.9389 14.5342 16.0466 14.5342 13.4384C14.5342 10.9834 14.08 9.1934 13.1211 8.01718C12.2127 6.84095 10.7997 6.27833 8.88192 6.27833ZM125.054 11.4949C124.247 11.4949 123.591 11.7507 123.086 12.2621C122.638 12.7167 122.348 13.4138 122.219 14.3173L122.178 14.6657H127.88C127.83 13.694 127.578 12.9269 127.073 12.3643C126.568 11.8018 125.912 11.4949 125.054 11.4949ZM33.3074 11.4949C32.5 11.4949 31.844 11.7507 31.3393 12.2621C30.8346 12.7734 30.5317 13.5918 30.4309 14.6657H36.1335C36.083 13.694 35.8308 12.9269 35.3261 12.3643C34.8214 11.8018 34.1653 11.4949 33.3074 11.4949ZM82.1078 0.345703V4.79513H75.4968V0.345703H82.1078Z" fill="white"/>
<path d="M171 28H170V6H171V28Z" fill="white"/>
<g clip-path="url(#clip0_5403_14200)">
<path d="M206.633 16.8146H213.506V26.19C212.382 26.5565 211.302 26.8163 210.268 26.9692C209.233 27.1222 208.114 27.1998 206.915 27.1998C204.087 27.1998 201.907 26.3623 200.375 24.6897C198.843 23.0171 198.076 20.655 198.076 17.606C198.076 14.5569 198.94 12.2483 200.669 10.549C202.397 8.84966 204.779 8 207.811 8C209.76 8 211.608 8.37385 213.355 9.12398L212.282 11.6657C210.765 10.9665 209.25 10.6194 207.736 10.6194C205.743 10.6194 204.167 11.2457 203.009 12.4959C201.851 13.7485 201.271 15.46 201.271 17.6303C201.271 19.9122 201.793 21.6479 202.837 22.835C203.881 24.0221 205.381 24.6169 207.34 24.6169C208.328 24.6169 209.384 24.4931 210.508 24.2455V19.4291H206.638V16.8097L206.633 16.8146Z" fill="#80C343"/>
<path d="M223.318 27.2004C221.121 27.2004 219.402 26.5595 218.164 25.2777C216.926 23.996 216.305 22.2311 216.305 19.9832C216.305 17.7352 216.88 15.8611 218.028 14.5405C219.179 13.2199 220.757 12.5596 222.767 12.5596C224.631 12.5596 226.105 13.1252 227.188 14.2589C228.268 15.3926 228.809 16.9511 228.809 18.9344V20.5561H219.395C219.439 21.9277 219.808 22.9812 220.507 23.7168C221.206 24.4524 222.189 24.8213 223.456 24.8213C224.291 24.8213 225.068 24.7437 225.787 24.5859C226.505 24.4281 227.28 24.1659 228.105 23.7993V26.2391C227.372 26.5886 226.632 26.8363 225.882 26.9795C225.131 27.1251 224.277 27.1955 223.313 27.1955L223.318 27.2004ZM222.767 14.8342C221.813 14.8342 221.048 15.1377 220.473 15.7421C219.898 16.3466 219.555 17.2278 219.444 18.3858H225.857C225.84 17.2181 225.559 16.3345 225.015 15.7349C224.469 15.1352 223.721 14.8342 222.767 14.8342Z" fill="#80C343"/>
<path d="M244.127 26.9426H241.111V18.2567C241.111 17.1667 240.893 16.3534 240.454 15.8169C240.014 15.2804 239.32 15.0134 238.366 15.0134C237.096 15.0134 236.169 15.3872 235.581 16.1374C234.994 16.8875 234.7 18.1426 234.7 19.905V26.9426H231.697V12.8164H234.047L234.47 14.6687H234.623C235.047 13.9962 235.652 13.4767 236.436 13.1102C237.22 12.7436 238.089 12.5615 239.041 12.5615C242.43 12.5615 244.124 14.2851 244.124 17.7347V26.945L244.127 26.9426Z" fill="#80C343"/>
<path d="M265.332 26.9426H262.011L258.843 15.8048C258.707 15.3193 258.537 14.6201 258.33 13.7025C258.127 12.7873 258.003 12.1513 257.959 11.792C257.874 12.3382 257.736 13.0446 257.544 13.9113C257.352 14.7803 257.192 15.4261 257.066 15.8533L253.975 26.9402H250.654L248.239 17.5891L245.787 8.26953H248.904L251.574 19.1524C251.992 20.8979 252.291 22.4394 252.468 23.777C252.563 23.0536 252.701 22.2452 252.89 21.3494C253.077 20.4561 253.247 19.7326 253.4 19.1767L256.439 8.26953H259.467L262.584 19.2301C262.882 20.2449 263.198 21.7597 263.528 23.777C263.657 22.5584 263.963 21.0095 264.448 19.1282L267.104 8.26953H270.194L265.327 26.945L265.332 26.9426Z" fill="#80C343"/>
<path d="M268.937 25.3474C268.937 24.726 269.1 24.2477 269.423 23.9176C269.745 23.5874 270.214 23.4199 270.828 23.4199C271.442 23.4199 271.923 23.5923 272.246 23.937C272.569 24.2817 272.731 24.7527 272.731 25.3474C272.731 25.9422 272.566 26.4301 272.239 26.7846C271.911 27.139 271.44 27.3138 270.826 27.3138C270.211 27.3138 269.745 27.139 269.42 26.7894C269.097 26.4398 268.935 25.9592 268.935 25.345L268.937 25.3474Z" fill="#80C343"/>
<path d="M288.482 26.9421L286.618 21.7568H279.478L277.653 26.9421H274.434L281.418 8.19141H284.739L291.725 26.9446H288.48L288.482 26.9421ZM285.812 19.1253L284.061 14.0419C283.933 13.702 283.758 13.1655 283.532 12.4324C283.306 11.6993 283.151 11.1628 283.066 10.8229C282.835 11.8716 282.5 13.015 282.056 14.2604L280.369 19.1277H285.812V19.1253Z" fill="#80C343"/>
<path d="M293.667 26.9426V8.26953H296.721V26.945H293.667V26.9426Z" fill="#80C343"/>
<path d="M303.081 14.2683H301.816V9.3524H300.194V8.29883H304.702V9.3524H303.081V14.2683Z" fill="#80C343"/>
<path d="M308.148 14.2683L306.711 9.58545H306.675C306.726 10.5371 306.752 11.1731 306.752 11.4911V14.2683H305.621V8.29883H307.345L308.758 12.8627H308.782L310.28 8.29883H312.003V14.2683H310.823V11.4426C310.823 11.309 310.823 11.1561 310.831 10.9813C310.836 10.8065 310.853 10.3453 310.887 9.59274H310.85L309.311 14.2683H308.151H308.148Z" fill="#80C343"/>
</g>
<defs>
<clipPath id="clip0_5403_14200">
<rect width="115" height="20" fill="white" transform="translate(197 8)"/>
</clipPath>
</defs>
</svg>
